<svg width="36" height="36" viewBox="0 0 36 36" fill="none" xmlns="http://www.w3.org/2000/svg">
<path d="M26.4853 24.9853C24.9052 26.5654 21.3859 30.0847 19.412 32.0585C18.631 32.8396 17.3686 32.8391 16.5875 32.0581C14.6461 30.1167 11.2022 26.6728 9.51472 24.9853C4.82843 20.299 4.82843 12.701 9.51472 8.01472C14.201 3.32843 21.799 3.32843 26.4853 8.01472C31.1716 12.701 31.1716 20.299 26.4853 24.9853Z" stroke="#111827" stroke-width="2" stroke-linecap="round" stroke-linejoin="round"/>
<path d="M22.5 16.5C22.5 18.9853 20.4853 21 18 21C15.5147 21 13.5 18.9853 13.5 16.5C13.5 14.0147 15.5147 12 18 12C20.4853 12 22.5 14.0147 22.5 16.5Z" stroke="#111827" stroke-width="2" stroke-linecap="round" stroke-linejoin="round"/>
</svg>
