<svg width="15" height="11" viewBox="0 0 15 11" fill="none" xmlns="http://www.w3.org/2000/svg">
<path d="M5.70476 5.74017C4.89123 6.55486 4.11308 7.33531 3.33417 8.11615C2.66744 8.78287 2.00072 9.44857 1.334 10.1132C1.1159 10.3298 0.852801 10.3967 0.556237 10.3094C0.259673 10.2221 0.0831191 10.0117 0.0177288 9.71436C-0.0453536 9.42511 0.0650406 9.18778 0.267366 8.98353C1.19206 8.05935 2.11599 7.13491 3.03914 6.21021C3.72356 5.52605 4.40849 4.84227 5.09394 4.15888C5.46974 3.78577 5.90478 3.78385 6.27904 4.15311C6.79908 4.66598 7.31567 5.18269 7.82879 5.70325C7.88687 5.76171 7.92341 5.84134 7.96457 5.90288L12.2865 1.57712C12.2249 1.57327 12.1657 1.56674 12.1061 1.56635C11.606 1.56635 11.106 1.57135 10.606 1.56327C10.2755 1.55827 10.0267 1.39787 9.89089 1.09746C9.76126 0.810517 9.80434 0.532031 10.0063 0.287394C10.0787 0.196725 10.171 0.123907 10.2761 0.0745557C10.3811 0.0252044 10.4961 0.000639112 10.6121 0.00275446C11.8091 6.19234e-05 13.0092 -0.00224597 14.2078 0.00390841C14.6605 0.0062163 14.9956 0.350092 14.9971 0.802054C15.0009 1.99446 15.0009 3.18688 14.9971 4.37929C14.9971 4.8324 14.6421 5.18705 14.212 5.1832C13.782 5.17936 13.4504 4.84086 13.4427 4.38659C13.4354 3.89963 13.4408 3.41228 13.4408 2.92493V2.72299L13.3708 2.6776C13.3273 2.74615 13.2787 2.81133 13.2254 2.87262C11.695 4.40583 10.1635 5.93788 8.63078 7.46878C8.2319 7.8669 7.80071 7.86766 7.40337 7.47225C6.88153 6.95271 6.36058 6.43151 5.84054 5.90865C5.79592 5.86365 5.76015 5.80826 5.70476 5.74017Z" fill="#008A1E"/>
</svg>
