<svg width="21" height="21" viewBox="0 0 21 21" fill="none" xmlns="http://www.w3.org/2000/svg">
<path d="M17.7343 3.2657L18.4414 2.5586V2.5586L17.7343 3.2657ZM5.68756 18.406V19.406C5.95278 19.406 6.20713 19.3007 6.39467 19.1131L5.68756 18.406ZM2.62506 18.406H1.62506C1.62506 18.9583 2.07278 19.406 2.62506 19.406V18.406ZM2.62506 15.2814L1.91795 14.5743C1.73042 14.7618 1.62506 15.0161 1.62506 15.2814H2.62506ZM15.3478 3.97281C15.8116 3.50906 16.5635 3.50906 17.0272 3.97281L18.4414 2.5586C17.1966 1.3138 15.1784 1.3138 13.9336 2.5586L15.3478 3.97281ZM17.0272 3.97281C17.4909 4.43656 17.4909 5.18844 17.0272 5.65219L18.4414 7.0664C19.6862 5.82161 19.6862 3.80339 18.4414 2.5586L17.0272 3.97281ZM17.0272 5.65219L4.98045 17.6989L6.39467 19.1131L18.4414 7.0664L17.0272 5.65219ZM5.68756 17.406H2.62506V19.406H5.68756V17.406ZM13.9336 2.5586L1.91795 14.5743L3.33217 15.9885L15.3478 3.97281L13.9336 2.5586ZM1.62506 15.2814V18.406H3.62506V15.2814H1.62506ZM12.6211 5.28531L15.7147 8.3789L17.1289 6.96469L14.0353 3.8711L12.6211 5.28531Z" fill="#F2F1FA"/>
</svg>
