<svg width="40" height="40" viewBox="0 0 40 40" fill="none" xmlns="http://www.w3.org/2000/svg">
<path d="M4 22C4 20.8954 4.89543 20 6 20H10C11.1046 20 12 20.8954 12 22V32C12 33.1046 11.1046 34 10 34H6C4.89543 34 4 33.1046 4 32V22Z" fill="#111827"/>
<path d="M16 14C16 12.8954 16.8954 12 18 12H22C23.1046 12 24 12.8954 24 14V32C24 33.1046 23.1046 34 22 34H18C16.8954 34 16 33.1046 16 32V14Z" fill="#111827"/>
<path d="M28 8C28 6.89543 28.8954 6 30 6H34C35.1046 6 36 6.89543 36 8V32C36 33.1046 35.1046 34 34 34H30C28.8954 34 28 33.1046 28 32V8Z" fill="#111827"/>
</svg>
