<svg width="15" height="22" viewBox="0 0 15 22" fill="none" xmlns="http://www.w3.org/2000/svg">
<path d="M12.6725 12.2003C12.4425 11.9003 12.1625 11.6403 11.9025 11.3803C11.2325 10.7802 10.4725 10.3502 9.83247 9.72022C8.34244 8.26018 8.01243 5.85013 8.96246 4.00009C8.01243 4.23009 7.18242 4.75011 6.4724 5.32012C3.88234 7.40016 2.86232 11.0702 4.08235 14.2203C4.12235 14.3203 4.16235 14.4203 4.16235 14.5503C4.16235 14.7703 4.01235 14.9703 3.81234 15.0503C3.58234 15.1503 3.34233 15.0903 3.15233 14.9303C3.09523 14.8831 3.04771 14.8254 3.01232 14.7603C1.8823 13.3303 1.70229 11.2803 2.46231 9.64021C0.792274 11.0002 -0.117746 13.3003 0.012257 15.4703C0.0722583 15.9704 0.13226 16.4704 0.302263 16.9704C0.442267 17.5704 0.712273 18.1704 1.01228 18.7004C2.0923 20.4305 3.96234 21.6705 5.97239 21.9205C8.11244 22.1905 10.4025 21.8005 12.0425 20.3205C13.8726 18.6604 14.5126 16.0004 13.5726 13.7203L13.4426 13.4603C13.2326 13.0003 12.6725 12.2003 12.6725 12.2003ZM9.51247 18.5004C9.23246 18.7404 8.77245 19.0004 8.41244 19.1004C7.29242 19.5004 6.17239 18.9404 5.51238 18.2804C6.70241 18.0004 7.41242 17.1204 7.62243 16.2304C7.79243 15.4303 7.47242 14.7703 7.34242 14.0003C7.22242 13.2603 7.24242 12.6303 7.51242 11.9403C7.70243 12.3203 7.90243 12.7003 8.14244 13.0003C8.91245 14.0003 10.1225 14.4403 10.3825 15.8004C10.4225 15.9404 10.4425 16.0804 10.4425 16.2304C10.4725 17.0504 10.1125 17.9504 9.51247 18.5004Z" fill="#F57B29"/>
</svg>
