<svg width="34" height="34" viewBox="0 0 34 34" fill="none" xmlns="http://www.w3.org/2000/svg">
<path d="M16.9999 3.3999C17.9388 3.3999 18.6999 4.16102 18.6999 5.0999V6.7999C18.6999 7.73879 17.9388 8.4999 16.9999 8.4999C16.061 8.4999 15.2999 7.73879 15.2999 6.7999V5.0999C15.2999 4.16102 16.061 3.3999 16.9999 3.3999Z" fill="#111827"/>
<path d="M23.7999 16.9999C23.7999 20.7554 20.7554 23.7999 16.9999 23.7999C13.2444 23.7999 10.1999 20.7554 10.1999 16.9999C10.1999 13.2444 13.2444 10.1999 16.9999 10.1999C20.7554 10.1999 23.7999 13.2444 23.7999 16.9999Z" fill="#111827"/>
<path d="M23.0104 25.4144L24.2125 26.6165C24.8764 27.2804 25.9528 27.2804 26.6166 26.6165C27.2805 25.9526 27.2805 24.8762 26.6166 24.2123L25.4146 23.0102C24.7507 22.3463 23.6743 22.3463 23.0104 23.0102C22.3465 23.6741 22.3465 24.7505 23.0104 25.4144Z" fill="#111827"/>
<path d="M26.6165 7.38316C27.2804 8.04705 27.2804 9.12343 26.6165 9.78732L25.4144 10.9894C24.7505 11.6533 23.6741 11.6533 23.0102 10.9894C22.3463 10.3255 22.3463 9.24913 23.0102 8.58524L24.2123 7.38316C24.8762 6.71927 25.9526 6.71927 26.6165 7.38316Z" fill="#111827"/>
<path d="M28.8999 18.6999C29.8388 18.6999 30.5999 17.9388 30.5999 16.9999C30.5999 16.061 29.8388 15.2999 28.8999 15.2999H27.1999C26.261 15.2999 25.4999 16.061 25.4999 16.9999C25.4999 17.9388 26.261 18.6999 27.1999 18.6999H28.8999Z" fill="#111827"/>
<path d="M16.9999 25.4999C17.9388 25.4999 18.6999 26.261 18.6999 27.1999V28.8999C18.6999 29.8388 17.9388 30.5999 16.9999 30.5999C16.061 30.5999 15.2999 29.8388 15.2999 28.8999V27.1999C15.2999 26.261 16.061 25.4999 16.9999 25.4999Z" fill="#111827"/>
<path d="M8.58543 10.9894C9.24932 11.6533 10.3257 11.6533 10.9896 10.9894C11.6535 10.3255 11.6535 9.24916 10.9896 8.58527L9.78751 7.38319C9.12362 6.7193 8.04724 6.7193 7.38335 7.38319C6.71946 8.04708 6.71946 9.12346 7.38335 9.78735L8.58543 10.9894Z" fill="#111827"/>
<path d="M10.9894 25.4144L9.78735 26.6165C9.12346 27.2803 8.04708 27.2803 7.38319 26.6165C6.7193 25.9526 6.7193 24.8762 7.38319 24.2123L8.58527 23.0102C9.24916 22.3463 10.3255 22.3463 10.9894 23.0102C11.6533 23.6741 11.6533 24.7505 10.9894 25.4144Z" fill="#111827"/>
<path d="M6.7999 18.6999C7.73879 18.6999 8.4999 17.9388 8.4999 16.9999C8.4999 16.061 7.73879 15.2999 6.7999 15.2999H5.0999C4.16102 15.2999 3.3999 16.061 3.3999 16.9999C3.3999 17.9388 4.16102 18.6999 5.0999 18.6999H6.7999Z" fill="#111827"/>
</svg>
