<svg width="18" height="18" viewBox="0 0 18 18" fill="none" xmlns="http://www.w3.org/2000/svg">
<path d="M15.4839 7.73421C15.5682 8.18608 15.6142 8.65853 15.6142 9.15154C15.6142 13.0079 13.0332 15.75 9.13501 15.75C8.24852 15.7503 7.37065 15.5759 6.55158 15.2367C5.73251 14.8976 4.98829 14.4004 4.36144 13.7736C3.73459 13.1467 3.2374 12.4025 2.89827 11.5834C2.55915 10.7644 2.38474 9.8865 2.38501 9C2.38474 8.11351 2.55915 7.23564 2.89827 6.41657C3.2374 5.5975 3.73459 4.85328 4.36144 4.22643C4.98829 3.59958 5.73251 3.10239 6.55158 2.76326C7.37065 2.42414 8.24852 2.24973 9.13501 2.25C10.9576 2.25 12.4805 2.92061 13.649 4.0095L11.7462 5.91231V5.90751C11.0378 5.23278 10.1389 4.88651 9.13501 4.88651C6.90787 4.88651 5.09763 6.76806 5.09763 8.99589C5.09763 11.223 6.90787 13.1087 9.13501 13.1087C11.1558 13.1087 12.5313 11.9533 12.8138 10.3666H9.13501V7.73421H15.4846H15.4839Z" fill="#040504"/>
</svg>
