<svg width="21" height="21" viewBox="0 0 21 21" fill="none" xmlns="http://www.w3.org/2000/svg">
<path fill-rule="evenodd" clip-rule="evenodd" d="M10.5 14.875C11.4665 14.875 12.25 15.6585 12.25 16.625C12.25 17.5915 11.4665 18.375 10.5 18.375C9.5335 18.375 8.75 17.5915 8.75 16.625C8.75 15.6585 9.5335 14.875 10.5 14.875ZM10.5 8.75C11.4665 8.75 12.25 9.5335 12.25 10.5C12.25 11.4665 11.4665 12.25 10.5 12.25C9.5335 12.25 8.75 11.4665 8.75 10.5C8.75 9.5335 9.5335 8.75 10.5 8.75ZM10.5 2.625C11.4665 2.625 12.25 3.4085 12.25 4.375C12.25 5.3415 11.4665 6.125 10.5 6.125C9.5335 6.125 8.75 5.3415 8.75 4.375C8.75 3.4085 9.5335 2.625 10.5 2.625Z" fill="#1E293B"/>
</svg>
