<svg width="18" height="15" viewBox="0 0 18 15" fill="none" xmlns="http://www.w3.org/2000/svg">
<path d="M15.2008 2.33265L15.841 1.56442V1.56442L15.2008 2.33265ZM15.2008 4.54235L14.5607 3.77413L15.2008 4.54235ZM4.87506 13.1472V14.1472C5.109 14.1472 5.33553 14.0652 5.51525 13.9154L4.87506 13.1472ZM2.25006 13.1472H1.25006C1.25006 13.6995 1.69778 14.1472 2.25006 14.1472V13.1472ZM2.25006 10.9153L1.60988 10.147C1.38188 10.337 1.25006 10.6185 1.25006 10.9153H2.25006ZM13.1894 3.10087C13.5508 2.79971 14.1993 2.79971 14.5607 3.10087L15.841 1.56442C14.738 0.645192 13.0121 0.645192 11.909 1.56442L13.1894 3.10087ZM14.5607 3.10087C14.7159 3.2302 14.75 3.35593 14.75 3.4375C14.75 3.51907 14.7159 3.6448 14.5607 3.77413L15.841 5.31058C16.4181 4.82971 16.75 4.15569 16.75 3.4375C16.75 2.71931 16.4181 2.04529 15.841 1.56442L14.5607 3.10087ZM14.5607 3.77413L4.23488 12.379L5.51525 13.9154L15.841 5.31058L14.5607 3.77413ZM4.87506 12.1472H2.25006V14.1472H4.87506V12.1472ZM11.909 1.56442L1.60988 10.147L2.89025 11.6835L13.1894 3.10087L11.909 1.56442ZM1.25006 10.9153V13.1472H3.25006V10.9153H1.25006ZM10.784 4.03837L13.4357 6.24808L14.716 4.71163L12.0644 2.50192L10.784 4.03837Z" fill="#F2F1FA"/>
</svg>
