<svg width="27" height="28" viewBox="0 0 27 28" fill="none" xmlns="http://www.w3.org/2000/svg">
<path d="M17.6558 21.2222H25.2267L23.0994 19.1929C22.5224 18.6425 22.1983 17.8961 22.1983 17.1178V12.5556C22.1983 8.78204 19.6703 5.57179 16.1417 4.38204V3.88889C16.1417 2.2934 14.7858 1 13.1133 1C11.4408 1 10.085 2.2934 10.085 3.88889V4.38204C6.55641 5.57179 4.02833 8.78204 4.02833 12.5556V17.1178C4.02833 17.8961 3.70422 18.6425 3.1273 19.1929L1 21.2222H8.57083M17.6558 21.2222V22.6667C17.6558 25.0599 15.6221 27 13.1133 27C10.6046 27 8.57083 25.0599 8.57083 22.6667V21.2222M17.6558 21.2222H8.57083" stroke="#F2F1FA" stroke-width="2" stroke-linecap="round" stroke-linejoin="round"/>
</svg>
