<svg width="49" height="49" viewBox="0 0 49 49" fill="none" xmlns="http://www.w3.org/2000/svg">
<path d="M24.5 4.8999C25.8531 4.8999 26.95 5.9968 26.95 7.3499V9.7999C26.95 11.153 25.8531 12.2499 24.5 12.2499C23.1469 12.2499 22.05 11.153 22.05 9.7999V7.3499C22.05 5.9968 23.1469 4.8999 24.5 4.8999Z" fill="#F5BD30"/>
<path d="M34.3 24.4999C34.3 29.9123 29.9124 34.2999 24.5 34.2999C19.0876 34.2999 14.7 29.9123 14.7 24.4999C14.7 19.0875 19.0876 14.6999 24.5 14.6999C29.9124 14.6999 34.3 19.0875 34.3 24.4999Z" fill="#F5BD30"/>
<path d="M33.1622 36.6267L34.8946 38.3591C35.8514 39.3159 37.4027 39.3159 38.3594 38.3591C39.3162 37.4023 39.3162 35.8511 38.3594 34.8943L36.627 33.1619C35.6702 32.2051 34.119 32.2051 33.1622 33.1619C32.2054 34.1186 32.2054 35.6699 33.1622 36.6267Z" fill="#F5BD30"/>
<path d="M38.3592 10.6405C39.316 11.5973 39.316 13.1485 38.3592 14.1053L36.6268 15.8377C35.67 16.7945 34.1188 16.7945 33.162 15.8377C32.2052 14.8809 32.2052 13.3297 33.162 12.3729L34.8944 10.6405C35.8512 9.6837 37.4024 9.6837 38.3592 10.6405Z" fill="#F5BD30"/>
<path d="M41.65 26.9499C43.0031 26.9499 44.1 25.853 44.1 24.4999C44.1 23.1468 43.0031 22.0499 41.65 22.0499H39.2C37.8469 22.0499 36.75 23.1468 36.75 24.4999C36.75 25.853 37.8469 26.9499 39.2 26.9499H41.65Z" fill="#F5BD30"/>
<path d="M24.5 36.7499C25.8531 36.7499 26.95 37.8468 26.95 39.1999V41.6499C26.95 43.003 25.8531 44.0999 24.5 44.0999C23.1469 44.0999 22.05 43.003 22.05 41.6499V39.1999C22.05 37.8468 23.1469 36.7499 24.5 36.7499Z" fill="#F5BD30"/>
<path d="M12.3733 15.8378C13.3301 16.7945 14.8813 16.7945 15.8381 15.8378C16.7949 14.881 16.7949 13.3297 15.8381 12.3729L14.1057 10.6405C13.1489 9.68374 11.5977 9.68374 10.6409 10.6405C9.68409 11.5973 9.68409 13.1486 10.6409 14.1053L12.3733 15.8378Z" fill="#F5BD30"/>
<path d="M15.8379 36.6266L14.1055 38.3591C13.1487 39.3158 11.5974 39.3158 10.6406 38.3591C9.68386 37.4023 9.68386 35.851 10.6406 34.8942L12.3731 33.1618C13.3298 32.205 14.8811 32.205 15.8379 33.1618C16.7947 34.1186 16.7947 35.6699 15.8379 36.6266Z" fill="#F5BD30"/>
<path d="M9.80002 26.9499C11.1531 26.9499 12.25 25.853 12.25 24.4999C12.25 23.1468 11.1531 22.0499 9.80002 22.0499H7.35002C5.99693 22.0499 4.90002 23.1468 4.90002 24.4999C4.90002 25.853 5.99693 26.9499 7.35002 26.9499H9.80002Z" fill="#F5BD30"/>
</svg>
