<svg width="34" height="34" viewBox="0 0 34 34" fill="none" xmlns="http://www.w3.org/2000/svg">
<path d="M17 3.3999C17.9389 3.3999 18.7 4.16102 18.7 5.0999V6.7999C18.7 7.73879 17.9389 8.4999 17 8.4999C16.0611 8.4999 15.3 7.73879 15.3 6.7999V5.0999C15.3 4.16102 16.0611 3.3999 17 3.3999Z" fill="#111827"/>
<path d="M23.8 16.9999C23.8 20.7554 20.7555 23.7999 17 23.7999C13.2445 23.7999 10.2 20.7554 10.2 16.9999C10.2 13.2444 13.2445 10.1999 17 10.1999C20.7555 10.1999 23.8 13.2444 23.8 16.9999Z" fill="#111827"/>
<path d="M23.0105 25.4144L24.2126 26.6165C24.8765 27.2804 25.9528 27.2804 26.6167 26.6165C27.2806 25.9526 27.2806 24.8762 26.6167 24.2123L25.4147 23.0102C24.7508 22.3463 23.6744 22.3463 23.0105 23.0102C22.3466 23.6741 22.3466 24.7505 23.0105 25.4144Z" fill="#111827"/>
<path d="M26.6166 7.38316C27.2805 8.04705 27.2805 9.12343 26.6166 9.78732L25.4145 10.9894C24.7506 11.6533 23.6742 11.6533 23.0103 10.9894C22.3464 10.3255 22.3464 9.24913 23.0103 8.58524L24.2124 7.38316C24.8763 6.71927 25.9527 6.71927 26.6166 7.38316Z" fill="#111827"/>
<path d="M28.9 18.6999C29.8389 18.6999 30.6 17.9388 30.6 16.9999C30.6 16.061 29.8389 15.2999 28.9 15.2999H27.2C26.2611 15.2999 25.5 16.061 25.5 16.9999C25.5 17.9388 26.2611 18.6999 27.2 18.6999H28.9Z" fill="#111827"/>
<path d="M17 25.4999C17.9389 25.4999 18.7 26.261 18.7 27.1999V28.8999C18.7 29.8388 17.9389 30.5999 17 30.5999C16.0611 30.5999 15.3 29.8388 15.3 28.8999V27.1999C15.3 26.261 16.0611 25.4999 17 25.4999Z" fill="#111827"/>
<path d="M8.58552 10.9894C9.24941 11.6533 10.3258 11.6533 10.9897 10.9894C11.6536 10.3255 11.6536 9.24916 10.9897 8.58527L9.7876 7.38319C9.12371 6.7193 8.04733 6.7193 7.38344 7.38319C6.71955 8.04708 6.71955 9.12346 7.38344 9.78735L8.58552 10.9894Z" fill="#111827"/>
<path d="M10.9895 25.4144L9.78745 26.6165C9.12355 27.2803 8.04717 27.2803 7.38328 26.6165C6.71939 25.9526 6.71939 24.8762 7.38328 24.2123L8.58536 23.0102C9.24926 22.3463 10.3256 22.3463 10.9895 23.0102C11.6534 23.6741 11.6534 24.7505 10.9895 25.4144Z" fill="#111827"/>
<path d="M6.79999 18.6999C7.73888 18.6999 8.49999 17.9388 8.49999 16.9999C8.49999 16.061 7.73888 15.2999 6.79999 15.2999H5.09999C4.16111 15.2999 3.39999 16.061 3.39999 16.9999C3.39999 17.9388 4.16111 18.6999 5.09999 18.6999H6.79999Z" fill="#111827"/>
</svg>
